# xmcd
#
# Track frame offsets:
#	150
#	19500
#	45812
#	81978
#	109861
#	127688
#	195328
#	213778
#	230736
#	263729
#	310302
#
# Disc length: 4325 seconds
#
# Revision: 1
# Processed by: cddbd v1.4PL0 Copyright (c) Steve Scherf et al.
# Submitted via: EasyCDDAExtractor 5.0.7
#
DISCID=8010e30b
DTITLE=Roger "Hurricane" Wilson - Live at the Stanhope House
DYEAR=2000
DGENRE=Blues
TTITLE0=Short Fuse
TTITLE1=You Don't Have To Go
TTITLE2=Leave My Girl Alone
TTITLE3=Are We Even Now?
TTITLE4=Cap'n Harry's Blue Marlin Bar
TTITLE5=Slide Sequence
TTITLE6=Little Sister
TTITLE7=Blow Wind Blow
TTITLE8=Back Porch Blues
TTITLE9=Don't Let The Devil Ride
TTITLE10=It Don't Get No Better N' This
EXTD=
EXTT0=
EXTT1=
EXTT2=
EXTT3=
EXTT4=
EXTT5=
EXTT6=
EXTT7=
EXTT8=
EXTT9=
EXTT10=
PLAYORDER=
